<svg width="23" height="22" viewBox="0 0 23 22" fill="none" xmlns="http://www.w3.org/2000/svg">
<path d="M21.9512 14.6269C22.1883 14.0811 21.5107 13.6162 20.9424 13.8588C19.8064 14.3406 18.579 14.5885 17.3384 14.5865C12.4746 14.5865 8.53238 10.8536 8.53238 6.24817C8.5306 4.69319 8.98779 3.16997 9.85032 1.85721C10.1804 1.35411 9.78407 0.657841 9.17973 0.806078C4.52045 1.95491 1.08032 5.9663 1.08032 10.738C1.08032 16.4058 5.93253 21 11.919 21C16.4516 21 20.3334 18.3665 21.9512 14.6269Z" stroke="#7D0633"/>
<path d="M15.7369 0.90154C15.1209 0.503995 14.3864 1.21374 14.7967 1.80893L15.5288 2.87017C15.8259 3.30047 15.9844 3.80612 15.9844 4.32334C15.9844 4.84057 15.8259 5.34622 15.5288 5.77652L14.7967 6.83776C14.3864 7.43295 15.1221 8.14269 15.738 7.74515L16.8352 7.03765C17.2805 6.75065 17.8038 6.59749 18.3391 6.59749C18.8743 6.59749 19.3976 6.75065 19.843 7.03765L20.9412 7.74515C21.5572 8.14269 22.2917 7.43295 21.8803 6.83776L21.1481 5.77652C20.8511 5.34622 20.6926 4.84057 20.6926 4.32334C20.6926 3.80612 20.8511 3.30047 21.1481 2.87017L21.8803 1.80893C22.2917 1.21374 21.5572 0.503995 20.9401 0.90154L19.843 1.60904C19.3976 1.89604 18.8743 2.0492 18.3391 2.0492C17.8038 2.0492 17.2805 1.89604 16.8352 1.60904L15.7369 0.90154Z" stroke="#7D0633"/>
</svg>
